<mxfile host="app.diagrams.net" modified="2023-05-17T13:13:47.143Z" agent="Mozilla/5.0 (Windows NT 10.0; Win64; x64) AppleWebKit/537.36 (KHTML, like Gecko) Chrome/113.0.0.0 Safari/537.36" etag="_lIIEyHDoeN1K6g9V89A" version="21.3.2" type="github" pages="3">
  <diagram name="Home" id="03018318-947c-dd8e-b7a3-06fadd420f32">
    <mxGraphModel dx="1034" dy="462" grid="1" gridSize="10" guides="1" tooltips="1" connect="1" arrows="1" fold="1" page="1" pageScale="1" pageWidth="1100" pageHeight="850" background="#ffffff" math="0" shadow="0">
      <root>
        <mxCell id="0" />
        <mxCell id="1" parent="0" />
        <mxCell id="677b7b8949515195-1" value="&lt;font style=&quot;font-size: 36px&quot;&gt;&lt;br&gt;&lt;br&gt;&lt;/font&gt;" style="whiteSpace=wrap;html=1;rounded=0;shadow=0;labelBackgroundColor=none;strokeColor=#000000;strokeWidth=1;fillColor=none;fontFamily=Verdana;fontSize=12;fontColor=#000000;align=center;comic=1;" parent="1" vertex="1">
          <mxGeometry x="29.5" y="30" width="940" height="1660" as="geometry" />
        </mxCell>
        <mxCell id="2Qoxch6ahefRRrczBgPk-2" value="" style="rounded=0;whiteSpace=wrap;html=1;comic=1;fillColor=none;" parent="1" vertex="1">
          <mxGeometry x="140" y="190" width="700" height="558" as="geometry" />
        </mxCell>
        <mxCell id="2Qoxch6ahefRRrczBgPk-59" value="" style="rounded=0;whiteSpace=wrap;html=1;comic=1;fillColor=#EDEDED;" parent="1" vertex="1">
          <mxGeometry x="181" y="458" width="620" height="90" as="geometry" />
        </mxCell>
        <mxCell id="677b7b8949515195-2" value="LOGO" style="whiteSpace=wrap;html=1;rounded=0;shadow=0;labelBackgroundColor=none;strokeWidth=1;fontFamily=Verdana;fontSize=28;align=center;comic=1;" parent="1" vertex="1">
          <mxGeometry x="390" y="40" width="190" height="50" as="geometry" />
        </mxCell>
        <mxCell id="677b7b8949515195-3" value="Skill, Job Title, Company" style="strokeWidth=1;shadow=0;dashed=0;align=center;html=1;shape=mxgraph.mockup.forms.searchBox;strokeColor=#999999;mainText=;strokeColor2=#008cff;fontColor=#666666;fontSize=17;align=left;spacingLeft=3;rounded=0;labelBackgroundColor=none;comic=1;" parent="1" vertex="1">
          <mxGeometry x="140" y="110" width="700" height="50" as="geometry" />
        </mxCell>
        <mxCell id="677b7b8949515195-4" value="Job Seekers" style="text;html=1;points=[];align=left;verticalAlign=top;spacingTop=-4;fontSize=14;fontFamily=Verdana" parent="1" vertex="1">
          <mxGeometry x="880" y="30" width="60" height="20" as="geometry" />
        </mxCell>
        <mxCell id="677b7b8949515195-7" value="Employers" style="text;html=1;points=[];align=left;verticalAlign=top;spacingTop=-4;fontSize=14;fontFamily=Verdana" parent="1" vertex="1">
          <mxGeometry x="30" y="30" width="60" height="20" as="geometry" />
        </mxCell>
        <mxCell id="2Qoxch6ahefRRrczBgPk-1" value="+ Filters" style="text;html=1;points=[];align=left;verticalAlign=top;spacingTop=-4;fontSize=14;fontFamily=Verdana" parent="1" vertex="1">
          <mxGeometry x="760" y="160" width="60" height="20" as="geometry" />
        </mxCell>
        <UserObject label="&lt;span style=&quot;font-family: &amp;#34;verdana&amp;#34; ; font-size: 24px ; text-align: left&quot;&gt;All Jobs&lt;/span&gt;" link="https://www.draw.io" id="2Qoxch6ahefRRrczBgPk-8">
          <mxCell style="text;html=1;strokeColor=none;fillColor=none;whiteSpace=wrap;align=center;verticalAlign=middle;fontColor=#0000EE;fontStyle=4;comic=1;" parent="1" vertex="1">
            <mxGeometry x="679" y="1050" width="140" height="40" as="geometry" />
          </mxCell>
        </UserObject>
        <mxCell id="2Qoxch6ahefRRrczBgPk-9" value="" style="rounded=0;whiteSpace=wrap;html=1;comic=1;fillColor=#EDEDED;" parent="1" vertex="1">
          <mxGeometry x="181" y="260" width="620" height="90" as="geometry" />
        </mxCell>
        <mxCell id="2Qoxch6ahefRRrczBgPk-12" value="Job Listing 1" style="text;strokeColor=none;fillColor=none;html=1;fontSize=24;fontStyle=1;verticalAlign=middle;align=center;comic=1;" parent="1" vertex="1">
          <mxGeometry x="181" y="263.5" width="160" height="35" as="geometry" />
        </mxCell>
        <mxCell id="2Qoxch6ahefRRrczBgPk-13" value="&lt;span style=&quot;font-size: 18px ; font-weight: 400&quot;&gt;Company Name&lt;/span&gt;" style="text;strokeColor=none;fillColor=none;html=1;fontSize=24;fontStyle=1;verticalAlign=middle;align=center;comic=1;" parent="1" vertex="1">
          <mxGeometry x="221" y="303" width="160" height="35" as="geometry" />
        </mxCell>
        <mxCell id="2Qoxch6ahefRRrczBgPk-14" value="&lt;span style=&quot;font-size: 14px&quot;&gt;Logo&lt;/span&gt;" style="shape=ext;double=1;whiteSpace=wrap;html=1;aspect=fixed;comic=1;fillColor=#ffffff;" parent="1" vertex="1">
          <mxGeometry x="189" y="304" width="40" height="40" as="geometry" />
        </mxCell>
        <mxCell id="2Qoxch6ahefRRrczBgPk-16" value="Location" style="text;html=1;points=[];align=left;verticalAlign=top;spacingTop=-4;fontSize=14;fontFamily=Verdana" parent="1" vertex="1">
          <mxGeometry x="411" y="314" width="60" height="20" as="geometry" />
        </mxCell>
        <mxCell id="2Qoxch6ahefRRrczBgPk-17" value="Type" style="text;html=1;points=[];align=left;verticalAlign=top;spacingTop=-4;fontSize=14;fontFamily=Verdana" parent="1" vertex="1">
          <mxGeometry x="531" y="314" width="60" height="20" as="geometry" />
        </mxCell>
        <mxCell id="2Qoxch6ahefRRrczBgPk-18" value="Date" style="text;html=1;points=[];align=left;verticalAlign=top;spacingTop=-4;fontSize=14;fontFamily=Verdana" parent="1" vertex="1">
          <mxGeometry x="741" y="271" width="60" height="20" as="geometry" />
        </mxCell>
        <mxCell id="2Qoxch6ahefRRrczBgPk-19" value="Apply" style="strokeWidth=1;shadow=0;dashed=0;align=center;html=1;shape=mxgraph.mockup.buttons.button;strokeColor=#666666;fontColor=#ffffff;mainText=;buttonStyle=round;fontSize=17;fontStyle=1;fillColor=#008cff;whiteSpace=wrap;comic=1;" parent="1" vertex="1">
          <mxGeometry x="704" y="311" width="90" height="30" as="geometry" />
        </mxCell>
        <mxCell id="2Qoxch6ahefRRrczBgPk-21" value="&lt;font style=&quot;font-size: 24px&quot;&gt;TOP COMPANIES&lt;/font&gt;" style="rounded=0;whiteSpace=wrap;html=1;comic=1;" parent="1" vertex="1">
          <mxGeometry x="164" y="1302" width="640" height="170" as="geometry" />
        </mxCell>
        <mxCell id="2Qoxch6ahefRRrczBgPk-22" value="&lt;font style=&quot;font-size: 36px&quot;&gt;FOOTER&lt;br&gt;Africa Map in Background&amp;nbsp;&lt;br&gt;&lt;/font&gt;" style="rounded=0;whiteSpace=wrap;html=1;comic=1;" parent="1" vertex="1">
          <mxGeometry x="39" y="1490" width="921" height="190" as="geometry" />
        </mxCell>
        <mxCell id="2Qoxch6ahefRRrczBgPk-24" value="" style="strokeWidth=1;shadow=0;dashed=0;align=center;html=1;shape=mxgraph.mockup.containers.marginRect2;rectMarginTop=32;strokeColor=#666666;gradientColor=none;comic=1;" parent="1" vertex="1">
          <mxGeometry x="165" y="1060" width="640" height="200" as="geometry" />
        </mxCell>
        <mxCell id="2Qoxch6ahefRRrczBgPk-25" value="Most Search" style="strokeColor=inherit;fillColor=inherit;gradientColor=inherit;strokeWidth=1;shadow=0;dashed=0;align=center;html=1;shape=mxgraph.mockup.containers.rrect;rSize=0;fontSize=17;fontColor=#666666;gradientColor=none;" parent="2Qoxch6ahefRRrczBgPk-24" vertex="1">
          <mxGeometry width="120" height="25" relative="1" as="geometry">
            <mxPoint x="10" as="offset" />
          </mxGeometry>
        </mxCell>
        <mxCell id="2Qoxch6ahefRRrczBgPk-26" value="By Category" style="strokeWidth=1;shadow=0;dashed=0;align=center;html=1;shape=mxgraph.mockup.containers.rrect;rSize=0;fontSize=17;fontColor=#ffffff;strokeColor=#008cff;fillColor=#008cff;" parent="2Qoxch6ahefRRrczBgPk-24" vertex="1">
          <mxGeometry width="130" height="25" relative="1" as="geometry">
            <mxPoint x="130" as="offset" />
          </mxGeometry>
        </mxCell>
        <mxCell id="2Qoxch6ahefRRrczBgPk-27" value="By Cities" style="strokeColor=inherit;fillColor=inherit;gradientColor=inherit;strokeWidth=1;shadow=0;dashed=0;align=center;html=1;shape=mxgraph.mockup.containers.rrect;rSize=0;fontSize=17;fontColor=#666666;gradientColor=none;" parent="2Qoxch6ahefRRrczBgPk-24" vertex="1">
          <mxGeometry width="140" height="25" relative="1" as="geometry">
            <mxPoint x="260" as="offset" />
          </mxGeometry>
        </mxCell>
        <mxCell id="2Qoxch6ahefRRrczBgPk-28" value="" style="strokeWidth=1;shadow=0;dashed=0;align=center;html=1;shape=mxgraph.mockup.containers.topButton;rSize=5;strokeColor=#008cff;fillColor=#008cff;gradientColor=none;resizeWidth=1;movable=0;deletable=1;" parent="2Qoxch6ahefRRrczBgPk-24" vertex="1">
          <mxGeometry width="640" height="7" relative="1" as="geometry">
            <mxPoint y="25" as="offset" />
          </mxGeometry>
        </mxCell>
        <mxCell id="2Qoxch6ahefRRrczBgPk-30" value="Save" style="text;html=1;points=[];align=left;verticalAlign=top;spacingTop=-4;fontSize=14;fontFamily=Verdana" parent="1" vertex="1">
          <mxGeometry x="631" y="314" width="60" height="20" as="geometry" />
        </mxCell>
        <mxCell id="2Qoxch6ahefRRrczBgPk-32" value="" style="rounded=0;whiteSpace=wrap;html=1;comic=1;fillColor=#EDEDED;" parent="1" vertex="1">
          <mxGeometry x="181" y="360" width="620" height="90" as="geometry" />
        </mxCell>
        <mxCell id="2Qoxch6ahefRRrczBgPk-33" value="Job Listing 1" style="text;strokeColor=none;fillColor=none;html=1;fontSize=24;fontStyle=1;verticalAlign=middle;align=center;comic=1;" parent="1" vertex="1">
          <mxGeometry x="181" y="363.5" width="160" height="35" as="geometry" />
        </mxCell>
        <mxCell id="2Qoxch6ahefRRrczBgPk-34" value="&lt;span style=&quot;font-size: 18px ; font-weight: 400&quot;&gt;Company Name&lt;/span&gt;" style="text;strokeColor=none;fillColor=none;html=1;fontSize=24;fontStyle=1;verticalAlign=middle;align=center;comic=1;" parent="1" vertex="1">
          <mxGeometry x="221" y="403" width="160" height="35" as="geometry" />
        </mxCell>
        <mxCell id="2Qoxch6ahefRRrczBgPk-35" value="&lt;span style=&quot;font-size: 14px&quot;&gt;Logo&lt;/span&gt;" style="shape=ext;double=1;whiteSpace=wrap;html=1;aspect=fixed;comic=1;fillColor=#ffffff;" parent="1" vertex="1">
          <mxGeometry x="189" y="404" width="40" height="40" as="geometry" />
        </mxCell>
        <mxCell id="2Qoxch6ahefRRrczBgPk-36" value="Location" style="text;html=1;points=[];align=left;verticalAlign=top;spacingTop=-4;fontSize=14;fontFamily=Verdana" parent="1" vertex="1">
          <mxGeometry x="411" y="414" width="60" height="20" as="geometry" />
        </mxCell>
        <mxCell id="2Qoxch6ahefRRrczBgPk-37" value="Type" style="text;html=1;points=[];align=left;verticalAlign=top;spacingTop=-4;fontSize=14;fontFamily=Verdana" parent="1" vertex="1">
          <mxGeometry x="531" y="414" width="60" height="20" as="geometry" />
        </mxCell>
        <mxCell id="2Qoxch6ahefRRrczBgPk-38" value="Date" style="text;html=1;points=[];align=left;verticalAlign=top;spacingTop=-4;fontSize=14;fontFamily=Verdana" parent="1" vertex="1">
          <mxGeometry x="741" y="371" width="60" height="20" as="geometry" />
        </mxCell>
        <mxCell id="2Qoxch6ahefRRrczBgPk-39" value="Apply" style="strokeWidth=1;shadow=0;dashed=0;align=center;html=1;shape=mxgraph.mockup.buttons.button;strokeColor=#666666;fontColor=#ffffff;mainText=;buttonStyle=round;fontSize=17;fontStyle=1;fillColor=#008cff;whiteSpace=wrap;comic=1;" parent="1" vertex="1">
          <mxGeometry x="704" y="411" width="90" height="30" as="geometry" />
        </mxCell>
        <mxCell id="2Qoxch6ahefRRrczBgPk-40" value="Save" style="text;html=1;points=[];align=left;verticalAlign=top;spacingTop=-4;fontSize=14;fontFamily=Verdana" parent="1" vertex="1">
          <mxGeometry x="631" y="414" width="60" height="20" as="geometry" />
        </mxCell>
        <mxCell id="2Qoxch6ahefRRrczBgPk-50" value="&lt;font style=&quot;font-size: 24px&quot;&gt;10 Listings&lt;/font&gt;" style="rounded=0;whiteSpace=wrap;html=1;comic=1;fillColor=#EDEDED;" parent="1" vertex="1">
          <mxGeometry x="181" y="557" width="620" height="90" as="geometry" />
        </mxCell>
        <mxCell id="2Qoxch6ahefRRrczBgPk-51" value="Job Listing 1" style="text;strokeColor=none;fillColor=none;html=1;fontSize=24;fontStyle=1;verticalAlign=middle;align=center;comic=1;" parent="1" vertex="1">
          <mxGeometry x="184" y="463.5" width="160" height="35" as="geometry" />
        </mxCell>
        <mxCell id="2Qoxch6ahefRRrczBgPk-52" value="&lt;span style=&quot;font-size: 18px ; font-weight: 400&quot;&gt;Company Name&lt;/span&gt;" style="text;strokeColor=none;fillColor=none;html=1;fontSize=24;fontStyle=1;verticalAlign=middle;align=center;comic=1;" parent="1" vertex="1">
          <mxGeometry x="224" y="503" width="160" height="35" as="geometry" />
        </mxCell>
        <mxCell id="2Qoxch6ahefRRrczBgPk-53" value="&lt;span style=&quot;font-size: 14px&quot;&gt;Logo&lt;/span&gt;" style="shape=ext;double=1;whiteSpace=wrap;html=1;aspect=fixed;comic=1;fillColor=#ffffff;" parent="1" vertex="1">
          <mxGeometry x="192" y="504" width="40" height="40" as="geometry" />
        </mxCell>
        <mxCell id="2Qoxch6ahefRRrczBgPk-54" value="Location" style="text;html=1;points=[];align=left;verticalAlign=top;spacingTop=-4;fontSize=14;fontFamily=Verdana" parent="1" vertex="1">
          <mxGeometry x="414" y="514" width="60" height="20" as="geometry" />
        </mxCell>
        <mxCell id="2Qoxch6ahefRRrczBgPk-55" value="Type" style="text;html=1;points=[];align=left;verticalAlign=top;spacingTop=-4;fontSize=14;fontFamily=Verdana" parent="1" vertex="1">
          <mxGeometry x="534" y="514" width="60" height="20" as="geometry" />
        </mxCell>
        <mxCell id="2Qoxch6ahefRRrczBgPk-56" value="Date" style="text;html=1;points=[];align=left;verticalAlign=top;spacingTop=-4;fontSize=14;fontFamily=Verdana" parent="1" vertex="1">
          <mxGeometry x="744" y="471" width="60" height="20" as="geometry" />
        </mxCell>
        <mxCell id="2Qoxch6ahefRRrczBgPk-57" value="Apply" style="strokeWidth=1;shadow=0;dashed=0;align=center;html=1;shape=mxgraph.mockup.buttons.button;strokeColor=#666666;fontColor=#ffffff;mainText=;buttonStyle=round;fontSize=17;fontStyle=1;fillColor=#008cff;whiteSpace=wrap;comic=1;" parent="1" vertex="1">
          <mxGeometry x="707" y="511" width="90" height="30" as="geometry" />
        </mxCell>
        <mxCell id="2Qoxch6ahefRRrczBgPk-58" value="Save" style="text;html=1;points=[];align=left;verticalAlign=top;spacingTop=-4;fontSize=14;fontFamily=Verdana" parent="1" vertex="1">
          <mxGeometry x="634" y="514" width="60" height="20" as="geometry" />
        </mxCell>
        <mxCell id="BggZCkUnCZ7gEGP9aafg-6" value="" style="rounded=0;whiteSpace=wrap;html=1;" vertex="1" parent="1">
          <mxGeometry x="181" y="220" width="129" height="30" as="geometry" />
        </mxCell>
        <mxCell id="BggZCkUnCZ7gEGP9aafg-7" value="" style="rounded=0;whiteSpace=wrap;html=1;" vertex="1" parent="1">
          <mxGeometry x="330" y="220" width="141" height="30" as="geometry" />
        </mxCell>
        <mxCell id="BggZCkUnCZ7gEGP9aafg-8" value="" style="rounded=0;whiteSpace=wrap;html=1;" vertex="1" parent="1">
          <mxGeometry x="500" y="220" width="145" height="30" as="geometry" />
        </mxCell>
        <mxCell id="BggZCkUnCZ7gEGP9aafg-9" value="" style="rounded=0;whiteSpace=wrap;html=1;" vertex="1" parent="1">
          <mxGeometry x="670" y="220" width="130" height="30" as="geometry" />
        </mxCell>
        <mxCell id="BggZCkUnCZ7gEGP9aafg-10" value="Text" style="text;html=1;strokeColor=none;fillColor=none;align=center;verticalAlign=middle;whiteSpace=wrap;rounded=0;" vertex="1" parent="1">
          <mxGeometry x="161" y="160" width="60" height="20" as="geometry" />
        </mxCell>
        <mxCell id="BggZCkUnCZ7gEGP9aafg-11" value="Text" style="text;html=1;strokeColor=none;fillColor=none;align=center;verticalAlign=middle;whiteSpace=wrap;rounded=0;" vertex="1" parent="1">
          <mxGeometry x="330" y="160" width="60" height="20" as="geometry" />
        </mxCell>
        <mxCell id="BggZCkUnCZ7gEGP9aafg-12" value="Text" style="text;html=1;strokeColor=none;fillColor=none;align=center;verticalAlign=middle;whiteSpace=wrap;rounded=0;" vertex="1" parent="1">
          <mxGeometry x="229" y="160" width="60" height="20" as="geometry" />
        </mxCell>
        <mxCell id="BggZCkUnCZ7gEGP9aafg-13" value="Text" style="text;html=1;strokeColor=none;fillColor=none;align=center;verticalAlign=middle;whiteSpace=wrap;rounded=0;" vertex="1" parent="1">
          <mxGeometry x="284" y="160" width="60" height="20" as="geometry" />
        </mxCell>
        <mxCell id="BggZCkUnCZ7gEGP9aafg-14" value="" style="rounded=0;whiteSpace=wrap;html=1;" vertex="1" parent="1">
          <mxGeometry x="161" y="160" width="20" height="20" as="geometry" />
        </mxCell>
        <mxCell id="BggZCkUnCZ7gEGP9aafg-15" value="" style="rounded=0;whiteSpace=wrap;html=1;" vertex="1" parent="1">
          <mxGeometry x="284" y="160" width="20" height="20" as="geometry" />
        </mxCell>
        <mxCell id="BggZCkUnCZ7gEGP9aafg-16" value="" style="rounded=0;whiteSpace=wrap;html=1;" vertex="1" parent="1">
          <mxGeometry x="229" y="160" width="20" height="20" as="geometry" />
        </mxCell>
        <mxCell id="BggZCkUnCZ7gEGP9aafg-17" value="" style="rounded=0;whiteSpace=wrap;html=1;" vertex="1" parent="1">
          <mxGeometry x="330" y="160" width="20" height="20" as="geometry" />
        </mxCell>
      </root>
    </mxGraphModel>
  </diagram>
  <diagram name="Copy of Home" id="Iw-urkSs0cp-HyhZOMoE">
    <mxGraphModel dx="1022" dy="506" grid="1" gridSize="10" guides="1" tooltips="1" connect="1" arrows="1" fold="1" page="1" pageScale="1" pageWidth="1100" pageHeight="850" background="#ffffff" math="0" shadow="0">
      <root>
        <mxCell id="lyqLXwzVduk4H7D0deFh-0" />
        <mxCell id="lyqLXwzVduk4H7D0deFh-1" parent="lyqLXwzVduk4H7D0deFh-0" />
        <mxCell id="lyqLXwzVduk4H7D0deFh-2" value="" style="whiteSpace=wrap;html=1;rounded=0;shadow=0;labelBackgroundColor=none;strokeColor=#000000;strokeWidth=1;fillColor=none;fontFamily=Verdana;fontSize=12;fontColor=#000000;align=center;comic=1;" parent="lyqLXwzVduk4H7D0deFh-1" vertex="1">
          <mxGeometry x="20" y="20" width="1060" height="810" as="geometry" />
        </mxCell>
        <mxCell id="lyqLXwzVduk4H7D0deFh-3" value="LOGO" style="whiteSpace=wrap;html=1;rounded=0;shadow=0;labelBackgroundColor=none;strokeWidth=1;fontFamily=Verdana;fontSize=28;align=center;comic=1;" parent="lyqLXwzVduk4H7D0deFh-1" vertex="1">
          <mxGeometry x="477" y="60" width="190" height="50" as="geometry" />
        </mxCell>
        <mxCell id="lyqLXwzVduk4H7D0deFh-4" value="Search" style="strokeWidth=1;shadow=0;dashed=0;align=center;html=1;shape=mxgraph.mockup.forms.searchBox;strokeColor=#999999;mainText=;strokeColor2=#008cff;fontColor=#666666;fontSize=17;align=left;spacingLeft=3;rounded=0;labelBackgroundColor=none;comic=1;" parent="lyqLXwzVduk4H7D0deFh-1" vertex="1">
          <mxGeometry x="840" y="95" width="220" height="30" as="geometry" />
        </mxCell>
        <mxCell id="lyqLXwzVduk4H7D0deFh-5" value="Topic 1" style="text;html=1;points=[];align=left;verticalAlign=top;spacingTop=-4;fontSize=14;fontFamily=Verdana" parent="lyqLXwzVduk4H7D0deFh-1" vertex="1">
          <mxGeometry x="780" y="40" width="60" height="20" as="geometry" />
        </mxCell>
        <mxCell id="lyqLXwzVduk4H7D0deFh-6" value="Topic 2" style="text;html=1;points=[];align=left;verticalAlign=top;spacingTop=-4;fontSize=14;fontFamily=Verdana" parent="lyqLXwzVduk4H7D0deFh-1" vertex="1">
          <mxGeometry x="860" y="40" width="60" height="20" as="geometry" />
        </mxCell>
        <mxCell id="lyqLXwzVduk4H7D0deFh-7" value="Topic 3" style="text;html=1;points=[];align=left;verticalAlign=top;spacingTop=-4;fontSize=14;fontFamily=Verdana" parent="lyqLXwzVduk4H7D0deFh-1" vertex="1">
          <mxGeometry x="930" y="40" width="60" height="20" as="geometry" />
        </mxCell>
        <mxCell id="lyqLXwzVduk4H7D0deFh-8" value="Topic 4" style="text;html=1;points=[];align=left;verticalAlign=top;spacingTop=-4;fontSize=14;fontFamily=Verdana" parent="lyqLXwzVduk4H7D0deFh-1" vertex="1">
          <mxGeometry x="1000" y="40" width="60" height="20" as="geometry" />
        </mxCell>
        <mxCell id="lyqLXwzVduk4H7D0deFh-9" value="" style="whiteSpace=wrap;html=1;rounded=0;shadow=0;labelBackgroundColor=none;strokeWidth=1;fillColor=none;fontFamily=Verdana;fontSize=12;align=center;comic=1;" parent="lyqLXwzVduk4H7D0deFh-1" vertex="1">
          <mxGeometry x="30" y="230" width="200" height="590" as="geometry" />
        </mxCell>
        <mxCell id="lyqLXwzVduk4H7D0deFh-10" value="" style="line;strokeWidth=1;html=1;rounded=0;shadow=0;labelBackgroundColor=none;fillColor=none;fontFamily=Verdana;fontSize=14;fontColor=#000000;align=center;comic=1;" parent="lyqLXwzVduk4H7D0deFh-1" vertex="1">
          <mxGeometry x="20" y="140" width="1060" height="10" as="geometry" />
        </mxCell>
        <mxCell id="lyqLXwzVduk4H7D0deFh-11" value="" style="whiteSpace=wrap;html=1;rounded=0;shadow=0;labelBackgroundColor=none;strokeWidth=1;fillColor=none;fontFamily=Verdana;fontSize=12;align=center;comic=1;" parent="lyqLXwzVduk4H7D0deFh-1" vertex="1">
          <mxGeometry x="30" y="160" width="1040" height="50" as="geometry" />
        </mxCell>
        <mxCell id="lyqLXwzVduk4H7D0deFh-12" value="Section 1" style="text;html=1;points=[];align=left;verticalAlign=top;spacingTop=-4;fontSize=14;fontFamily=Verdana" parent="lyqLXwzVduk4H7D0deFh-1" vertex="1">
          <mxGeometry x="330" y="175" width="60" height="20" as="geometry" />
        </mxCell>
        <mxCell id="lyqLXwzVduk4H7D0deFh-13" value="Section 2" style="text;html=1;points=[];align=left;verticalAlign=top;spacingTop=-4;fontSize=14;fontFamily=Verdana" parent="lyqLXwzVduk4H7D0deFh-1" vertex="1">
          <mxGeometry x="477" y="175" width="60" height="20" as="geometry" />
        </mxCell>
        <mxCell id="lyqLXwzVduk4H7D0deFh-14" value="Section 3" style="text;html=1;points=[];align=left;verticalAlign=top;spacingTop=-4;fontSize=14;fontFamily=Verdana" parent="lyqLXwzVduk4H7D0deFh-1" vertex="1">
          <mxGeometry x="623" y="175" width="60" height="20" as="geometry" />
        </mxCell>
        <mxCell id="lyqLXwzVduk4H7D0deFh-15" value="Section 4" style="text;html=1;points=[];align=left;verticalAlign=top;spacingTop=-4;fontSize=14;fontFamily=Verdana" parent="lyqLXwzVduk4H7D0deFh-1" vertex="1">
          <mxGeometry x="770" y="175" width="60" height="20" as="geometry" />
        </mxCell>
        <mxCell id="lyqLXwzVduk4H7D0deFh-16" value="&lt;div style=&quot;text-align: justify&quot;&gt;&lt;span&gt;Lorem ipsum dolor sit amet, consectetur adipisicing elit, sed do eiusmod tempor incididunt ut labore et dolore magna aliqua. Ut enim ad minim veniam, quis nostrud exercitation ullamco laboris nisi ut aliquip ex ea commodo consequat. Duis aute irure dolor in reprehenderit in voluptate velit esse cillum dolore eu fugiat nulla pariatur. Excepteur sint occaecat cupidatat non proident, sunt in culpa qui officia deserunt mollit anim id est laborum.&lt;/span&gt;&lt;/div&gt;&lt;div style=&quot;text-align: justify&quot;&gt;&lt;span&gt;Sed ut perspiciatis unde omnis iste natus error sit voluptatem accusantium doloremque laudantium, totam rem aperiam, eaque ipsa quae ab illo inventore veritatis et quasi architecto beatae vitae dicta sunt explicabo. Nemo enim ipsam voluptatem quia voluptas sit aspernatur aut odit aut fugit, sed quia consequuntur magni dolores eos qui ratione voluptatem sequi nesciunt.&amp;nbsp;&lt;/span&gt;&lt;/div&gt;" style="whiteSpace=wrap;html=1;rounded=0;shadow=0;labelBackgroundColor=none;strokeWidth=1;fillColor=none;fontFamily=Verdana;fontSize=12;align=center;verticalAlign=top;spacing=10;comic=1;" parent="lyqLXwzVduk4H7D0deFh-1" vertex="1">
          <mxGeometry x="250" y="640" width="580" height="180" as="geometry" />
        </mxCell>
        <mxCell id="lyqLXwzVduk4H7D0deFh-17" value="" style="verticalLabelPosition=bottom;shadow=0;dashed=0;align=center;html=1;verticalAlign=top;strokeWidth=1;shape=mxgraph.mockup.graphics.simpleIcon;strokeColor=#999999;rounded=0;labelBackgroundColor=none;fontFamily=Verdana;fontSize=14;fontColor=#000000;comic=1;" parent="lyqLXwzVduk4H7D0deFh-1" vertex="1">
          <mxGeometry x="250" y="230" width="580" height="400" as="geometry" />
        </mxCell>
        <mxCell id="lyqLXwzVduk4H7D0deFh-18" value="" style="whiteSpace=wrap;html=1;rounded=0;shadow=0;labelBackgroundColor=none;strokeWidth=1;fillColor=none;fontFamily=Verdana;fontSize=12;align=center;comic=1;" parent="lyqLXwzVduk4H7D0deFh-1" vertex="1">
          <mxGeometry x="840" y="230" width="230" height="400" as="geometry" />
        </mxCell>
        <mxCell id="lyqLXwzVduk4H7D0deFh-19" value="" style="whiteSpace=wrap;html=1;rounded=0;shadow=0;labelBackgroundColor=none;strokeWidth=1;fillColor=none;fontFamily=Verdana;fontSize=12;align=center;comic=1;" parent="lyqLXwzVduk4H7D0deFh-1" vertex="1">
          <mxGeometry x="840" y="640" width="230" height="180" as="geometry" />
        </mxCell>
        <mxCell id="lyqLXwzVduk4H7D0deFh-20" value="Section 1" style="text;html=1;points=[];align=left;verticalAlign=top;spacingTop=-4;fontSize=14;fontFamily=Verdana" parent="lyqLXwzVduk4H7D0deFh-1" vertex="1">
          <mxGeometry x="40" y="250" width="170" height="20" as="geometry" />
        </mxCell>
        <mxCell id="lyqLXwzVduk4H7D0deFh-21" value="Section 2" style="text;html=1;points=[];align=left;verticalAlign=top;spacingTop=-4;fontSize=14;fontFamily=Verdana" parent="lyqLXwzVduk4H7D0deFh-1" vertex="1">
          <mxGeometry x="40" y="286" width="170" height="20" as="geometry" />
        </mxCell>
        <mxCell id="lyqLXwzVduk4H7D0deFh-22" value="Section 3" style="text;html=1;points=[];align=left;verticalAlign=top;spacingTop=-4;fontSize=14;fontFamily=Verdana" parent="lyqLXwzVduk4H7D0deFh-1" vertex="1">
          <mxGeometry x="40" y="321" width="170" height="20" as="geometry" />
        </mxCell>
        <mxCell id="lyqLXwzVduk4H7D0deFh-23" value="Section 4" style="text;html=1;points=[];align=left;verticalAlign=top;spacingTop=-4;fontSize=14;fontFamily=Verdana" parent="lyqLXwzVduk4H7D0deFh-1" vertex="1">
          <mxGeometry x="40" y="357" width="170" height="20" as="geometry" />
        </mxCell>
        <mxCell id="lyqLXwzVduk4H7D0deFh-24" value="Section 7" style="text;html=1;points=[];align=left;verticalAlign=top;spacingTop=-4;fontSize=14;fontFamily=Verdana" parent="lyqLXwzVduk4H7D0deFh-1" vertex="1">
          <mxGeometry x="40" y="464" width="170" height="20" as="geometry" />
        </mxCell>
        <mxCell id="lyqLXwzVduk4H7D0deFh-25" value="Section 8" style="text;html=1;points=[];align=left;verticalAlign=top;spacingTop=-4;fontSize=14;fontFamily=Verdana" parent="lyqLXwzVduk4H7D0deFh-1" vertex="1">
          <mxGeometry x="40" y="500" width="170" height="20" as="geometry" />
        </mxCell>
        <mxCell id="lyqLXwzVduk4H7D0deFh-26" value="Section 9" style="text;html=1;points=[];align=left;verticalAlign=top;spacingTop=-4;fontSize=14;fontFamily=Verdana" parent="lyqLXwzVduk4H7D0deFh-1" vertex="1">
          <mxGeometry x="40" y="536" width="170" height="20" as="geometry" />
        </mxCell>
        <mxCell id="lyqLXwzVduk4H7D0deFh-27" value="Section 10" style="text;html=1;points=[];align=left;verticalAlign=top;spacingTop=-4;fontSize=14;fontFamily=Verdana" parent="lyqLXwzVduk4H7D0deFh-1" vertex="1">
          <mxGeometry x="40" y="571" width="170" height="20" as="geometry" />
        </mxCell>
        <mxCell id="lyqLXwzVduk4H7D0deFh-28" value="Section 11" style="text;html=1;points=[];align=left;verticalAlign=top;spacingTop=-4;fontSize=14;fontFamily=Verdana" parent="lyqLXwzVduk4H7D0deFh-1" vertex="1">
          <mxGeometry x="40" y="607" width="170" height="20" as="geometry" />
        </mxCell>
        <mxCell id="lyqLXwzVduk4H7D0deFh-29" value="Section 12" style="text;html=1;points=[];align=left;verticalAlign=top;spacingTop=-4;fontSize=14;fontFamily=Verdana" parent="lyqLXwzVduk4H7D0deFh-1" vertex="1">
          <mxGeometry x="40" y="643" width="170" height="20" as="geometry" />
        </mxCell>
        <mxCell id="lyqLXwzVduk4H7D0deFh-30" value="Section 13" style="text;html=1;points=[];align=left;verticalAlign=top;spacingTop=-4;fontSize=14;fontFamily=Verdana" parent="lyqLXwzVduk4H7D0deFh-1" vertex="1">
          <mxGeometry x="40" y="679" width="170" height="20" as="geometry" />
        </mxCell>
        <mxCell id="lyqLXwzVduk4H7D0deFh-31" value="Section 14" style="text;html=1;points=[];align=left;verticalAlign=top;spacingTop=-4;fontSize=14;fontFamily=Verdana" parent="lyqLXwzVduk4H7D0deFh-1" vertex="1">
          <mxGeometry x="40" y="714" width="170" height="20" as="geometry" />
        </mxCell>
        <mxCell id="lyqLXwzVduk4H7D0deFh-32" value="Section 5" style="text;html=1;points=[];align=left;verticalAlign=top;spacingTop=-4;fontSize=14;fontFamily=Verdana" parent="lyqLXwzVduk4H7D0deFh-1" vertex="1">
          <mxGeometry x="40" y="393" width="170" height="20" as="geometry" />
        </mxCell>
        <mxCell id="lyqLXwzVduk4H7D0deFh-33" value="Section 6" style="text;html=1;points=[];align=left;verticalAlign=top;spacingTop=-4;fontSize=14;fontFamily=Verdana" parent="lyqLXwzVduk4H7D0deFh-1" vertex="1">
          <mxGeometry x="40" y="429" width="170" height="20" as="geometry" />
        </mxCell>
        <mxCell id="lyqLXwzVduk4H7D0deFh-34" value="Section 15" style="text;html=1;points=[];align=left;verticalAlign=top;spacingTop=-4;fontSize=14;fontFamily=Verdana" parent="lyqLXwzVduk4H7D0deFh-1" vertex="1">
          <mxGeometry x="40" y="750" width="170" height="20" as="geometry" />
        </mxCell>
        <mxCell id="lyqLXwzVduk4H7D0deFh-35" value="External Links" style="text;html=1;points=[];align=left;verticalAlign=top;spacingTop=-4;fontSize=14;fontFamily=Verdana" parent="lyqLXwzVduk4H7D0deFh-1" vertex="1">
          <mxGeometry x="860" y="653" width="170" height="20" as="geometry" />
        </mxCell>
        <mxCell id="lyqLXwzVduk4H7D0deFh-36" value="Feature 1" style="text;html=1;points=[];align=left;verticalAlign=top;spacingTop=-4;fontSize=14;fontFamily=Verdana" parent="lyqLXwzVduk4H7D0deFh-1" vertex="1">
          <mxGeometry x="860" y="250" width="170" height="20" as="geometry" />
        </mxCell>
        <mxCell id="lyqLXwzVduk4H7D0deFh-37" value="Feature 2" style="text;html=1;points=[];align=left;verticalAlign=top;spacingTop=-4;fontSize=14;fontFamily=Verdana" parent="lyqLXwzVduk4H7D0deFh-1" vertex="1">
          <mxGeometry x="860" y="285" width="170" height="20" as="geometry" />
        </mxCell>
        <mxCell id="lyqLXwzVduk4H7D0deFh-38" value="Feature 3" style="text;html=1;points=[];align=left;verticalAlign=top;spacingTop=-4;fontSize=14;fontFamily=Verdana" parent="lyqLXwzVduk4H7D0deFh-1" vertex="1">
          <mxGeometry x="860" y="320" width="170" height="20" as="geometry" />
        </mxCell>
        <mxCell id="lyqLXwzVduk4H7D0deFh-39" value="Feature 4" style="text;html=1;points=[];align=left;verticalAlign=top;spacingTop=-4;fontSize=14;fontFamily=Verdana" parent="lyqLXwzVduk4H7D0deFh-1" vertex="1">
          <mxGeometry x="860" y="355" width="170" height="20" as="geometry" />
        </mxCell>
        <mxCell id="lyqLXwzVduk4H7D0deFh-40" value="Feature 5" style="text;html=1;points=[];align=left;verticalAlign=top;spacingTop=-4;fontSize=14;fontFamily=Verdana" parent="lyqLXwzVduk4H7D0deFh-1" vertex="1">
          <mxGeometry x="860" y="390" width="170" height="20" as="geometry" />
        </mxCell>
        <mxCell id="lyqLXwzVduk4H7D0deFh-41" value="Feature 6" style="text;html=1;points=[];align=left;verticalAlign=top;spacingTop=-4;fontSize=14;fontFamily=Verdana" parent="lyqLXwzVduk4H7D0deFh-1" vertex="1">
          <mxGeometry x="860" y="425" width="170" height="20" as="geometry" />
        </mxCell>
      </root>
    </mxGraphModel>
  </diagram>
  <diagram id="JZOj11cB7qC5JpI7kiv7" name="Emp Dashboard">
    <mxGraphModel dx="1022" dy="506" grid="1" gridSize="10" guides="1" tooltips="1" connect="1" arrows="1" fold="1" page="1" pageScale="1" pageWidth="850" pageHeight="1100" math="0" shadow="0">
      <root>
        <mxCell id="73s-_tTVeTqX6AR3fDxR-0" />
        <mxCell id="73s-_tTVeTqX6AR3fDxR-1" parent="73s-_tTVeTqX6AR3fDxR-0" />
      </root>
    </mxGraphModel>
  </diagram>
</mxfile>
